<?xml version="1.0" encoding="UTF-8"?>
<svg version="1.1" xmlns="http://www.w3.org/2000/svg" width="1600" height="899">

<path d="M0 0 C327.36 0 654.72 0 992 0 C992 5.94 992 11.88 992 18 C664.64 18 337.28 18 0 18 C0 12.06 0 6.12 0 0 Z " fill="#C5CFEE" transform="translate(121,297)"/>
<path d="M0 0 C219.45 0 438.9 0 665 0 C665 8.25 665 16.5 665 25 C445.55 25 226.1 25 0 25 C0 16.75 0 8.5 0 0 Z " fill="#315DCC" transform="translate(119,63)"/>
<path d="M0 0 C275.88 0 551.76 0 836 0 C836 5.61 836 11.22 836 17 C560.12 17 284.24 17 0 17 C0 11.39 0 5.78 0 0 Z " fill="#DEE5F6" transform="translate(121,358)"/>
<path d="M0 0 C0.69605964 -0.01415005 1.39211929 -0.02830009 2.10927165 -0.04287893 C4.43602213 -0.08381517 6.76144698 -0.08915937 9.08853149 -0.09431458 C10.75951702 -0.11583126 12.43047797 -0.13933429 14.10140991 -0.16467285 C18.63917765 -0.22593351 23.17655499 -0.25411503 27.71467924 -0.27253127 C30.5550008 -0.28498483 33.39521858 -0.30354427 36.23549271 -0.32404518 C46.16016878 -0.39428791 56.08452671 -0.43422354 66.00942993 -0.45075989 C75.23357031 -0.46706431 84.45519473 -0.55481366 93.67850912 -0.67514724 C101.61515451 -0.77505358 109.5509672 -0.82041665 117.48823512 -0.82511026 C122.22096799 -0.82902983 126.95098573 -0.85500456 131.68305588 -0.93756676 C164.28210283 -1.47400657 164.28210283 -1.47400657 172.81969643 5.66559124 C175.58458934 8.49470758 177.77004029 11.40369481 179.96987915 14.69548035 C181.32629086 16.41111527 181.32629086 16.41111527 182.96987915 17.69548035 C185.66315413 17.91813643 188.13550328 17.96967872 190.82144165 17.89079285 C192.41127863 17.88381688 194.00112447 17.87866817 195.5909729 17.87516785 C198.0867496 17.85462647 200.57986981 17.82088225 203.07485962 17.7540741 C216.95479121 17.42261304 216.95479121 17.42261304 221.84390259 20.51091003 C224.0941332 22.78819365 226.01666822 25.16224522 227.96987915 27.69548035 C229.27530267 28.91154594 230.61226738 30.09482328 231.9815979 31.2384491 C237.17663265 35.70218775 242.09810839 40.44834468 247.05386353 45.17399597 C248.13570923 46.19976746 248.13570923 46.19976746 249.2394104 47.2462616 C249.88498901 47.86154724 250.53056763 48.47683289 251.19570923 49.11076355 C253.08816257 50.87586918 253.08816257 50.87586918 255.96987915 52.69548035 C255.96987915 53.35548035 255.96987915 54.01548035 255.96987915 54.69548035 C256.55511353 54.95200378 257.1403479 55.20852722 257.74331665 55.4728241 C260.16222523 56.80110197 261.70186787 58.26072836 263.59487915 60.25798035 C266.01509874 62.83563424 266.01509874 62.83563424 268.96987915 64.69548035 C268.96987915 65.35548035 268.96987915 66.01548035 268.96987915 66.69548035 C269.58862915 66.98423035 270.20737915 67.27298035 270.84487915 67.57048035 C272.96987915 68.69548035 272.96987915 68.69548035 274.96987915 70.69548035 C276.90492058 70.98871176 276.90492058 70.98871176 279.14949036 70.92684937 C280.46366943 70.92842041 280.46366943 70.92842041 281.80439758 70.93002319 C282.76803726 70.92118607 283.73167694 70.91234894 284.72451782 70.90324402 C285.73769073 70.90204559 286.75086365 70.90084717 287.79473877 70.89961243 C290.00081993 70.89645572 292.20689807 70.88912767 294.41295433 70.87817955 C297.90587139 70.86337269 301.39840443 70.86491099 304.89134216 70.87182617 C314.82462538 70.89069441 324.7576134 70.89711655 334.69082642 70.85002136 C340.76233622 70.8224202 346.83300905 70.82876375 352.90450478 70.85703468 C355.21812428 70.86129511 357.53180393 70.85281362 359.84532738 70.83130455 C363.08724862 70.80241481 366.32636661 70.81675123 369.56826782 70.84074402 C370.99854561 70.81230659 370.99854561 70.81230659 372.4577179 70.78329468 C377.57367539 70.87033934 380.29272891 71.45135016 383.98545837 75.12695312 C384.99461712 76.30431088 385.99151847 77.49240801 386.96987915 78.69548035 C388.26580305 79.87027887 389.57469524 81.03130321 390.90737915 82.16423035 C395.732397 86.32917832 400.34330687 90.70741872 404.96987915 95.0900116 C405.62987915 95.71262878 406.28987915 96.33524597 406.96987915 96.97673035 C407.54737915 97.52393738 408.12487915 98.07114441 408.71987915 98.63493347 C410.78962349 100.7043389 410.78962349 100.7043389 412.90634203 101.71957403 C416.12811747 103.74024861 418.48129694 105.73337384 419.43293703 109.5550832 C420.21169844 115.61801264 419.99555804 121.74631679 419.91604614 127.84500122 C419.91793675 129.94899515 419.92336521 132.05298838 419.93202925 134.15696532 C419.94573646 139.94097422 419.9096575 145.72377354 419.86567473 151.50759208 C419.82703801 157.74419993 419.83469301 163.98076538 419.83708191 170.21746826 C419.83521642 181.02550858 419.80513022 191.83308257 419.75639343 202.6409893 C419.68637464 218.27610242 419.66880734 233.91096431 419.66523379 249.54621787 C419.66349859 256.83132493 419.65919796 264.11643049 419.65422821 271.40153599 C419.65373364 272.13081873 419.65323907 272.86010146 419.65272951 273.61148368 C419.64036285 290.96756538 419.60287004 308.32357858 419.56118774 325.67961121 C419.55937342 326.4389547 419.5575591 327.1982982 419.5556898 327.98065211 C419.52621356 340.30289887 419.49521341 352.62514172 419.46402037 364.94738424 C419.43481191 376.49191391 419.40615975 388.03644474 419.37857056 399.58097839 C419.3767479 400.33976172 419.37492524 401.09854504 419.37304734 401.8803218 C419.33156948 419.20441778 419.29727818 436.5284875 419.28553009 453.85263157 C419.28503339 454.58077294 419.28453668 455.30891432 419.28402493 456.05912058 C419.2792303 463.32848532 419.27569268 470.59784955 419.2740314 477.86721569 C419.27018418 493.4846184 419.2443104 509.10154463 419.17386986 524.7187978 C419.1228572 536.10280266 419.09978485 547.48650884 419.1041435 558.87065523 C419.10548011 565.03893699 419.09345622 571.20646508 419.04652596 577.3745842 C419.00377986 583.01949601 418.99769458 588.66320728 419.02091843 594.30822212 C419.02275385 596.35191894 419.01096322 598.39568207 418.98428911 600.43920564 C418.42109488 610.89595227 418.42109488 610.89595227 421.77758574 620.41985023 C423.9075978 622.44583326 423.9075978 622.44583326 426.1528635 624.10807472 C428.30783209 625.99072733 428.64043884 626.95120242 428.98778152 629.75419998 C429.03626409 631.2125434 429.04235449 632.67272953 429.01266479 634.13157654 C429.02796698 634.94257207 429.04326917 635.7535676 429.05903506 636.58913875 C429.10007919 639.28744667 429.08444926 641.98230518 429.06851196 644.68083191 C429.08591455 646.62313972 429.10665191 648.56542009 429.13046265 650.50765991 C429.18392915 655.77053142 429.18634843 661.03225236 429.17620945 666.29534245 C429.17192286 670.69622262 429.19148409 675.0968718 429.21063113 679.49770236 C429.25498167 689.88590778 429.25678068 700.27353469 429.23257446 710.66178894 C429.20842855 721.35981607 429.25762553 732.05573708 429.34285474 742.75340486 C429.41344541 751.95381348 429.43730444 761.15355372 429.42430377 770.35422301 C429.41706932 775.84248237 429.42741687 781.32924024 429.48316193 786.81725311 C429.53366962 791.98282241 429.52553482 797.14512575 429.47351837 802.31064796 C429.46409618 804.19876803 429.4748503 806.08712131 429.50801086 807.97497368 C429.76383608 823.6802809 429.76383608 823.6802809 423.78366542 830.11786151 C421.29254463 832.48869201 418.69363831 834.59231804 415.96987915 836.69548035 C414.52538869 837.95836234 413.08594347 839.22711049 411.65737915 840.50798035 C411.03218384 841.04036316 410.40698853 841.57274597 409.7628479 842.1212616 C407.3109601 844.2740084 405.05565604 846.59893055 402.7706604 848.9259491 C400.17415294 851.47739786 397.43026356 853.8444234 394.6690979 856.2150116 C393.3925847 857.32719206 392.16704901 858.49831049 390.96987915 859.69548035 C389.08221761 859.9452106 389.08221761 859.9452106 386.72716337 859.94482268 C385.82897535 859.94952847 384.93078734 859.95423426 384.00538151 859.95908266 C382.51178842 859.95155602 382.51178842 859.95155602 380.98802173 859.94387734 C379.93132488 859.94643351 378.87462804 859.94898968 377.78591007 859.95162332 C374.19608604 859.95781573 370.60643345 859.9495826 367.01661491 859.941576 C364.42544364 859.94305354 361.83427274 859.94540884 359.24310297 859.948569 C353.56628416 859.95405655 347.88950538 859.95203529 342.21268855 859.94524671 C333.71430428 859.93512363 325.21594881 859.93649448 316.71756069 859.94017986 C302.2368987 859.94612317 287.75625279 859.94255216 273.2755928 859.9338913 C258.59248419 859.92514792 243.90938388 859.92074463 229.22627258 859.92169571 C228.300325 859.92175309 227.37437742 859.92181048 226.42037083 859.9218696 C221.69931171 859.92218233 216.97825261 859.92256623 212.2571935 859.92297527 C178.04846182 859.92579343 143.83973755 859.91891768 109.63100815 859.90694046 C75.74328449 859.89510393 41.855564 859.88739197 7.96783829 859.88523483 C6.91622625 859.88516601 5.86461421 859.88509719 4.78113514 859.88502628 C-4.82342671 859.8843999 -14.42798857 859.88382451 -24.03255044 859.88331033 C-47.91064115 859.88203138 -71.7887318 859.88011263 -95.66682243 859.87775993 C-97.29803028 859.87759998 -97.29803028 859.87759998 -98.96219181 859.8774368 C-151.88831909 859.87219112 -204.81444428 859.85957492 -257.74057007 859.84635925 C-276.11190794 859.84177602 -294.48324582 859.83722533 -312.85458374 859.83280945 C-313.99394361 859.83253555 -315.13330347 859.83226165 -316.3071894 859.83197945 C-369.25251419 859.81929618 -422.19783934 859.81184169 -475.14316525 859.80573986 C-478.5795348 859.80534373 -482.01590434 859.80494534 -485.45227388 859.8045465 C-508.22487572 859.80190698 -530.99747757 859.79935768 -553.77007942 859.79686878 C-599.08364538 859.79191551 -644.39721127 859.78643213 -689.71077713 859.78058469 C-691.86882894 859.78030621 -694.02688076 859.7800281 -696.18493257 859.77975036 C-793.36135704 859.76724086 -890.53777998 859.74856394 -987.71420288 859.72721863 C-988.62431134 859.72701876 -989.53441981 859.72681889 -990.47210732 859.72661296 C-1035.99144525 859.71661161 -1081.5107831 859.70625853 -1127.03012085 859.69548035 C-1127.03012085 858.70548035 -1127.03012085 857.71548035 -1127.03012085 856.69548035 C-1125.71457956 856.69601605 -1124.39903827 856.69655175 -1123.04363209 856.69710368 C-1078.00144994 856.71537669 -1032.95926714 856.73164999 -987.91708374 856.74650574 C-986.55601641 856.74695491 -986.55601641 856.74695491 -985.16745276 856.74741315 C-887.95593874 856.77943896 -790.74443272 856.79831472 -693.53291321 856.79055786 C-691.37399468 856.79038894 -689.21507616 856.79022003 -687.05615764 856.79005112 C-641.7415603 856.78646581 -596.42696333 856.78102905 -551.11236648 856.77345304 C-528.34991112 856.76964943 -505.58745571 856.76620166 -482.82500024 856.76309031 C-479.39133382 856.7626189 -475.95766741 856.76213734 -472.52400099 856.76165535 C-419.63988618 856.7543215 -366.75578494 856.75462686 -313.87167358 856.77702332 C-312.16562239 856.77774561 -312.16562239 856.77774561 -310.42510552 856.77848249 C-292.08695327 856.78629269 -273.74880132 856.79474304 -255.4106494 856.80327832 C-202.60187706 856.82784781 -149.79312213 856.8476969 -96.98434353 856.83619595 C-95.35595923 856.83584477 -95.35595923 856.83584477 -93.69467827 856.8354865 C-69.86540348 856.83026243 -46.03613012 856.82260305 -22.20685686 856.81263667 C-12.61927814 856.80866968 -3.0316993 856.80505338 6.55587959 856.80155754 C7.60520914 856.80116647 8.65453869 856.80077541 9.73566611 856.80037249 C43.56521307 856.78793934 77.39467268 856.80407246 111.22420544 856.83513765 C145.29210534 856.8662913 179.35988373 856.86953399 213.4277828 856.83379794 C218.1321617 856.82887023 222.83654085 856.82426371 227.54092026 856.81985092 C228.92424791 856.81853592 228.92424791 856.81853592 230.33552158 856.81719435 C244.95740419 856.80412773 259.57908908 856.82137366 274.20094058 856.85117151 C288.56761766 856.87982958 302.93399066 856.8766109 317.3006508 856.83914712 C325.7308866 856.81813391 334.16024276 856.82191802 342.5904148 856.86191689 C348.83901235 856.88883573 355.08663007 856.86914544 361.33515019 856.83087953 C363.85477396 856.82276618 366.37450195 856.82991002 368.89402613 856.85373581 C381.57536199 857.43933472 381.57536199 857.43933472 393.34613491 853.74250459 C395.60655068 851.5072278 397.23572307 849.34360233 398.96987915 846.69548035 C400.28064769 845.46486622 401.62455962 844.26761301 403.0128479 843.12516785 C407.98311184 838.85579119 412.68925771 834.31597279 417.40933228 829.77360535 C418.08544556 829.13165222 418.76155884 828.4896991 419.4581604 827.82829285 C420.06184448 827.24966492 420.66552856 826.67103699 421.2875061 826.07487488 C422.96987915 824.69548035 422.96987915 824.69548035 425.96987915 823.69548035 C425.96987915 758.68548035 425.96987915 693.67548035 425.96987915 626.69548035 C424.64987915 626.03548035 423.32987915 625.37548035 421.96987915 624.69548035 C419.00793284 622.57182014 416.44224713 620.36429423 415.42568808 616.77292494 C415.21556152 614.50304792 415.20130503 612.3049784 415.25228786 610.02585411 C415.24757118 609.16145562 415.24285449 608.29705714 415.23799488 607.40646476 C415.22945077 604.5012531 415.26384574 601.59813272 415.29786682 598.69313049 C415.30042828 596.59285785 415.30031495 594.49258052 415.29775244 592.39230788 C415.29823434 586.61391847 415.33598965 580.83627385 415.37951005 575.05807042 C415.41977143 568.82889766 415.42520224 562.59968953 415.43429565 556.3704071 C415.45428088 545.57279039 415.49474236 534.77545504 415.54765129 523.97796249 C415.62707017 507.63327689 415.65486039 491.28872206 415.67180126 474.94386776 C415.6788183 468.38363655 415.68746217 461.82340714 415.69607639 455.26317787 C415.69702524 454.53432291 415.69797408 453.80546794 415.69895168 453.05452646 C415.7218247 435.70516089 415.76033567 418.35583975 415.80410767 401.0065155 C415.80601001 400.24741216 415.80791235 399.48830881 415.80987234 398.70620233 C415.85439923 380.99954125 415.90747686 363.29293339 415.97634888 345.58634949 C415.97930515 344.82505371 415.98226142 344.06375794 415.98530727 343.2793926 C416.00023548 339.44066083 416.01524106 335.60192937 416.03026415 331.76319797 C416.03323168 331.0045349 416.03619921 330.24587184 416.03925667 329.46421898 C416.04524947 327.9329329 416.05125165 326.40164685 416.05726321 324.87036085 C416.15635606 299.56040374 416.21137983 274.2506526 416.21748587 248.94049697 C416.21840699 245.36473089 416.21991781 241.7889653 416.22183418 238.21319962 C416.22220653 237.50948095 416.22257888 236.80576228 416.22296252 236.08071881 C416.23041687 224.76330481 416.28566516 213.44660438 416.35997102 202.12945224 C416.43391265 190.75072689 416.46068318 179.37284989 416.44214808 167.99382417 C416.43363783 161.83066677 416.44644136 155.66946718 416.51617622 149.50665665 C416.57964975 143.86144928 416.58293878 138.2194843 416.53890891 132.57412143 C416.5335846 130.53500214 416.55018978 128.49567951 416.59124266 126.45696656 C417.05893296 114.88696262 417.05893296 114.88696262 412.10359681 104.87380528 C408.97808083 101.76531333 405.5624843 99.23936969 401.96987915 96.69548035 C400.69322349 95.56040601 399.43341402 94.40538841 398.2081604 93.2150116 C397.24265259 92.32169128 396.27714478 91.42837097 395.28237915 90.50798035 C394.80478149 90.06518738 394.32718384 89.62239441 393.83511353 89.16618347 C392.83485317 88.24136538 391.81982285 87.33226798 390.79071045 86.43966675 C388.96987915 84.69548035 388.96987915 84.69548035 387.28710938 82.45568848 C383.31755936 77.80060947 380.10995253 75.57353319 374.06129456 74.91229248 C368.93358155 74.61973564 363.81422492 74.6650015 358.68096352 74.77267075 C355.22021782 74.84497168 351.76292497 74.86202546 348.3014679 74.86555481 C340.96095574 74.8836075 333.62222531 74.97512184 326.28237915 75.07048035 C317.76271693 75.17209686 309.24401079 75.24344376 300.72374535 75.26135635 C297.31986332 75.28113199 293.91862503 75.34437071 290.5153656 75.41017151 C288.42509933 75.42175614 286.33482182 75.43150787 284.24453735 75.43913269 C282.83311211 75.48406609 282.83311211 75.48406609 281.39317322 75.52990723 C276.29927348 75.50074435 273.63916425 74.93085229 269.96292114 71.27163696 C268.95099885 70.09165033 267.95127001 68.90097906 266.96987915 67.69548035 C265.66745508 66.51417099 264.35206075 65.34663282 263.0128479 64.2071991 C259.00138332 60.743849 255.13362963 57.1477293 251.28237915 53.50798035 C249.87779446 52.18597974 248.47284161 50.86437019 247.0675354 49.5431366 C246.03137085 48.56884705 246.03137085 48.56884705 244.97427368 47.57487488 C238.47607156 41.46112946 238.47607156 41.46112946 231.85293579 35.48478699 C229.96987915 33.69548035 229.96987915 33.69548035 227.52236938 30.90422058 C222.82908448 25.76371438 218.98802159 22.15032609 211.79267883 21.80805969 C208.80296997 21.83030904 205.82972968 21.93997377 202.84570312 22.12504578 C182.77787669 23.27823829 182.77787669 23.27823829 176.17861938 17.60148621 C173.8786327 15.09774529 171.94793632 12.4640577 169.96987915 9.69548035 C165.56967365 5.36350846 163.21454284 4.0700635 156.85505676 4.03364563 C156.1620764 4.02302341 155.46909605 4.0124012 154.75511628 4.0014571 C152.4449839 3.97226765 150.13636723 3.97856812 147.82608032 3.98503113 C146.16492509 3.9717 144.50378531 3.95630684 142.84266663 3.93901062 C138.33831615 3.8991678 133.83446081 3.89150844 129.32995391 3.89212656 C125.56518098 3.89034419 121.80051652 3.87441483 118.03577882 3.85900486 C109.15038294 3.8235004 100.2652451 3.81571492 91.37979126 3.82389832 C82.22484441 3.83173746 73.07115334 3.78778853 63.91648883 3.71909726 C56.04701021 3.66218231 48.17793767 3.64016473 40.30825597 3.64533222 C35.61221346 3.64790578 30.91720706 3.6368297 26.22136497 3.59108353 C21.80233567 3.54934092 17.38540209 3.55125046 12.96633339 3.58604431 C11.34946549 3.59153025 9.73245949 3.58180893 8.11579895 3.55533981 C-0.81960623 3.29309189 -0.81960623 3.29309189 -8.89035606 6.632061 C-11.14399736 8.87672528 -13.06506464 11.19945609 -15.03012085 13.69548035 C-16.50247839 15.05927691 -17.99916632 16.39780704 -19.53012085 17.69548035 C-20.5046521 18.53079285 -20.5046521 18.53079285 -21.49887085 19.38298035 C-22.00418335 19.81610535 -22.50949585 20.24923035 -23.03012085 20.69548035 C-23.36012085 21.02548035 -23.69012085 21.35548035 -24.03012085 21.69548035 C-26.43838502 21.79469057 -28.81797837 21.82801863 -31.22678763 21.81967884 C-31.99401905 21.82095693 -32.76125047 21.82223502 -33.55173133 21.82355183 C-36.16088395 21.82665058 -38.76997772 21.82252982 -41.37912846 21.81852818 C-43.26138122 21.81926687 -45.14363385 21.82044443 -47.02588609 21.82202467 C-52.24737512 21.8251151 -57.46884491 21.82190097 -62.69033251 21.81774654 C-68.35224706 21.81433043 -74.01415952 21.81667966 -79.67607445 21.81832403 C-89.61552043 21.82040411 -99.55496045 21.81874324 -109.49440575 21.81468582 C-120.16427846 21.81034228 -130.83414727 21.80811244 -141.50402069 21.80858803 C-142.17681413 21.80861672 -142.84960757 21.80864541 -143.54278869 21.80867497 C-146.97309265 21.80883134 -150.40339661 21.80902329 -153.83370057 21.80922781 C-178.69145276 21.81063699 -203.5492024 21.80719865 -228.40695381 21.8012104 C-253.03188655 21.79529239 -277.65681819 21.79143621 -302.28175163 21.79035759 C-303.04588322 21.79032318 -303.81001481 21.79028877 -304.5973019 21.79025331 C-311.5762403 21.78994012 -318.55517871 21.78965243 -325.53411711 21.78939534 C-342.88469055 21.78875586 -360.23526396 21.78779648 -377.58583736 21.78662014 C-378.77113201 21.78654016 -378.77113201 21.78654016 -379.980372 21.78645857 C-418.43958232 21.78383565 -456.89879191 21.77752752 -495.35800171 21.7709198 C-508.70789591 21.76862819 -522.05779011 21.76635284 -535.40768433 21.7641449 C-536.64958962 21.76393947 -536.64958962 21.76393947 -537.9165839 21.7637299 C-576.38937859 21.75738841 -614.86217341 21.75366107 -653.33496848 21.7506101 C-655.83197273 21.75041204 -658.32897697 21.75021285 -660.82598122 21.75001342 C-677.37345171 21.74869367 -693.92092221 21.74741901 -710.46839271 21.74617456 C-743.39509262 21.74369792 -776.32179251 21.74095623 -809.24849238 21.73803252 C-810.81662599 21.73789328 -812.3847596 21.73775422 -813.95289321 21.73761535 C-884.56660812 21.7313605 -955.1803225 21.72202201 -1025.79403687 21.71134949 C-1026.45537968 21.71124955 -1027.11672249 21.71114962 -1027.798106 21.71104665 C-1060.87544431 21.70604596 -1093.9527826 21.70086942 -1127.03012085 21.69548035 C-1127.03012085 20.70548035 -1127.03012085 19.71548035 -1127.03012085 18.69548035 C-1126.07547522 18.69648399 -1125.12082959 18.69748763 -1124.1372553 18.69852169 C-998.38844453 18.8305842 -998.38844453 18.8305842 -812.39674377 18.91758728 C-810.82933364 18.91783671 -809.26192351 18.91808615 -807.69451338 18.91833561 C-774.79394758 18.92351825 -741.89338196 18.92623145 -708.99281575 18.92609207 C-692.46569885 18.9260247 -675.93858198 18.92643183 -659.41146509 18.92728763 C-656.91841651 18.92741397 -654.42536793 18.92752676 -651.93231935 18.92763899 C-613.54422627 18.92948647 -575.15616951 18.94150869 -536.76809692 18.98301697 C-535.94275947 18.98390919 -535.11742201 18.98480142 -534.26707432 18.98572068 C-520.96024488 19.00016778 -507.65341642 19.01546903 -494.34658807 19.03088364 C-456.01740757 19.07527111 -417.68826786 19.11333946 -379.35905743 19.10961533 C-378.17666303 19.10950506 -378.17666303 19.10950506 -376.97038189 19.10939256 C-359.66580534 19.10766532 -342.3612313 19.10269002 -325.05665659 19.09463962 C-318.09380338 19.0914576 -311.13095001 19.08874312 -304.16809654 19.08618927 C-303.02501796 19.08575309 -303.02501796 19.08575309 -301.85884687 19.0853081 C-277.30820248 19.07617256 -252.75778395 19.10509093 -228.20719199 19.15398427 C-203.47487658 19.20306523 -178.74284771 19.21479408 -154.01050722 19.1746699 C-150.59197581 19.16913325 -147.17344388 19.16402451 -143.75491142 19.15917397 C-142.74972589 19.1577245 -142.74972589 19.1577245 -141.72423358 19.15624575 C-130.47266705 19.14119676 -119.2215367 19.17371554 -107.97005235 19.21888894 C-98.18206904 19.25490323 -88.39474404 19.24751548 -78.60678987 19.20464256 C-73.02650183 19.18144827 -67.44798234 19.17730934 -61.86781929 19.22603336 C-56.78861136 19.27001164 -51.71262902 19.25856308 -46.63355888 19.20329946 C-44.80988239 19.19309709 -42.98595307 19.20291016 -41.16253821 19.23544154 C-31.48566883 19.39655167 -24.85940597 18.84697739 -17.66699809 11.91471839 C-15.71808904 9.89893485 -13.87082407 7.80969197 -12.03012085 5.69548035 C-7.87910068 1.23222845 -6.18402168 0.06746383 0 0 Z " fill="#3B64CE" transform="translate(1127.0301208496094,11.304519653320313)"/>
<path d="M0 0 C4.11373062 0.53688901 6.3774347 1.74939834 9.5625 4.375 C10.30628906 4.98085937 11.05007813 5.58671875 11.81640625 6.2109375 C14 8 14 8 15.62817383 9.60180664 C19.05015131 11.61906501 22.28646087 11.28703128 26.1328125 11.16015625 C27.76040282 11.14830602 29.38800999 11.13861049 31.015625 11.13085938 C33.56433714 11.10420841 36.10959435 11.06298273 38.65722656 10.9831543 C52.82774144 10.58155517 52.82774144 10.58155517 58.12792969 14.04248047 C60.63024732 16.57113325 62.80570924 19.20329889 65 22 C66.33794559 23.25125737 67.70754039 24.46995216 69.11328125 25.64453125 C73.25994464 29.2007447 77.22533824 32.9279828 81.1875 36.6875 C91.04642174 46.1064056 91.04642174 46.1064056 101.16799927 55.2381897 C103 57 103 57 105.12863159 59.68441772 C109.54142849 64.69324699 113.22028227 68.08286957 120.0322113 68.91368103 C125.11140436 69.21284176 130.17364707 69.10562902 135.25585365 68.92031288 C138.67725374 68.79850369 142.0930363 68.75017268 145.5164032 68.72026062 C154.0114188 68.63289389 162.50300399 68.43811343 170.9954834 68.21630859 C178.18576154 68.02934941 185.37241153 67.89887707 192.5649929 67.84786034 C195.91383073 67.80180514 199.25299985 67.67400844 202.59944153 67.54353333 C212.0884805 67.36273943 219.35217234 67.41979025 226.7616148 73.87781048 C229.17886565 76.26476014 231.4312244 78.73810702 233.60171509 81.35064697 C235.46717772 83.5510615 237.54287605 85.47315318 239.68359375 87.40234375 C241.57093422 89.17900096 243.45752526 90.95641617 245.34179688 92.73632812 C249.07433633 96.24682933 252.86514003 99.67439411 256.73461914 103.03344727 C257.48219482 103.68240967 258.22977051 104.33137207 259 105 C259.63976263 105.33515601 260.27952525 105.67031203 260.93867463 106.01562428 C264.15821781 108.04067649 266.51219323 110.03537595 267.46145083 113.85847646 C268.23454938 119.91561647 268.01184355 126.03723504 267.92597961 132.1293335 C267.92572196 134.23118585 267.92901266 136.33304114 267.93554848 138.43488336 C267.94342843 144.21313611 267.90155017 149.99012989 267.85181844 155.76813459 C267.80701557 161.99863667 267.80858041 168.22914005 267.80499268 174.45977783 C267.79288865 185.25800862 267.752854 196.05575524 267.6948185 206.85381317 C267.61144995 222.47795732 267.58349615 238.10186189 267.57082274 253.72620562 C267.56487768 261.00717098 267.55639285 268.28813346 267.54738903 275.56909561 C267.54649319 276.29797708 267.54559735 277.02685854 267.54467436 277.77782733 C267.5228256 295.1250439 267.47721998 312.4721827 267.42651367 329.81933594 C267.42430707 330.57828716 267.42210048 331.33723838 267.41982701 332.11918812 C267.37049127 349.05536808 267.31612959 365.99152741 267.25567526 382.92767134 C267.23101165 389.83817331 267.20663981 396.74867631 267.18237305 403.65917969 C267.1797012 404.41711382 267.17702935 405.17504796 267.17427653 405.95594979 C267.11342988 423.26519434 267.06161497 440.57438591 267.04223156 457.88373184 C267.04100683 458.97546423 267.04100683 458.97546423 267.03975737 460.08925183 C267.03185816 467.35616372 267.02581598 474.62307498 267.02240728 481.88999037 C267.01478952 497.49463974 266.97853179 513.09844411 266.88349461 528.70282135 C266.81475823 540.08021131 266.78525158 551.45702282 266.79376022 562.83467075 C266.79701859 568.99751322 266.78210924 575.15893701 266.71903038 581.32148743 C266.66157574 586.96504479 266.65491406 592.60631542 266.68834259 598.25004509 C266.6914401 600.28978391 266.6759238 602.32965518 266.63976041 604.36907575 C266.03611343 615.57633272 266.03611343 615.57633272 270.48797435 625.38115382 C272.40702578 627.29186067 274.41326315 628.96044433 276.5053075 630.6942451 C279.1412608 633.13056229 279.86394292 634.20529988 280.37587261 637.69170761 C280.43122594 639.2728122 280.42919378 640.85672737 280.37663269 642.43792725 C280.39167589 643.32035072 280.40671909 644.20277419 280.42221814 645.11193776 C280.45873644 648.03488792 280.41751857 650.95122739 280.37573242 653.87402344 C280.38573872 655.98251482 280.4004685 658.09098825 280.41954041 660.19941711 C280.45673497 665.90028202 280.42519818 671.59884547 280.37878585 677.29956722 C280.33965242 683.27404443 280.35680924 689.24839924 280.36579895 695.22296143 C280.37207686 705.25009237 280.33414588 715.2763148 280.26928711 725.30322266 C280.19482384 736.89113607 280.18792186 748.47758636 280.2176258 760.06566787 C280.24488417 771.22565431 280.22685308 782.38511573 280.18734169 793.54505157 C280.17119262 798.28981479 280.17045569 803.03421 280.18205833 807.77898407 C280.19349323 813.36433893 280.1651227 818.94812232 280.10608864 824.53316307 C280.09072921 826.58134794 280.0889128 828.62968623 280.10168457 830.67788887 C280.1856323 846.17325669 280.1856323 846.17325669 277.22671986 850.73215199 C275.22205479 852.51109241 273.36125504 853.75634061 271 855 C269.64279042 856.24355957 268.29263067 857.49497788 266.95703125 858.76171875 C266.2818042 859.40012695 265.60657715 860.03853516 264.91088867 860.69628906 C264.21842041 861.35338867 263.52595215 862.01048828 262.8125 862.6875 C256.94927426 868.2311951 251.06142155 873.74446571 245.1105957 879.1940918 C242.08146709 881.96220151 242.08146709 881.96220151 239.4802065 885.12227069 C235.52622191 888.11577657 231.50817652 887.54525031 226.67997718 887.49679399 C225.07651467 887.5044625 225.07651467 887.5044625 223.44065899 887.51228594 C219.82086945 887.5246391 216.2017643 887.50822566 212.58199692 887.49219131 C209.9646168 887.49514734 207.34723817 887.49985897 204.729864 887.50617731 C199.00174558 887.51713998 193.27378603 887.51312332 187.54567549 887.49953273 C178.97056235 887.47926676 170.39556322 887.48203281 161.82043482 887.48939903 C147.20828161 887.50127919 132.5961922 887.49415136 117.98404694 887.4768219 C103.16954313 887.45932967 88.35507231 887.45052921 73.54055786 887.45243073 C72.60601373 887.45254549 71.67146959 887.45266026 70.70860594 887.45277851 C65.94364092 887.45340398 61.17867594 887.45417178 56.41371095 887.45498985 C21.89476982 887.46062484 -12.62414193 887.44687923 -47.14307404 887.42292023 C-81.33616532 887.39924401 -115.52924402 887.3838226 -149.72234344 887.37950897 C-151.31420721 887.3793025 -151.31420721 887.3793025 -152.93822984 887.37909186 C-162.6308046 887.37783909 -172.32337937 887.37668832 -182.01595416 887.37565996 C-206.11243151 887.37310212 -230.20890857 887.36926467 -254.30538559 887.36455917 C-255.40278122 887.3643459 -256.50017685 887.36413263 -257.63082689 887.3639129 C-311.03481381 887.35342254 -364.43879243 887.32819055 -417.84277344 887.30175781 C-436.37906895 887.29259131 -454.91536448 887.28348992 -473.45166016 887.2746582 C-475.17605479 887.27383651 -475.17605479 887.27383651 -476.93528568 887.27299821 C-530.36023996 887.24762982 -583.78519565 887.23272209 -637.21015437 887.22051902 C-640.67782227 887.21972677 -644.14549017 887.21893 -647.61315807 887.21813231 C-670.59324823 887.21285326 -693.57333844 887.20775465 -716.55342868 887.20277687 C-762.27952852 887.19287042 -808.00562808 887.18190368 -853.7317275 887.17020868 C-855.90940675 887.16965172 -858.087086 887.1690955 -860.26476526 887.16854003 C-958.32006897 887.14352229 -1056.37536658 887.10616884 -1154.43066406 887.06347656 C-1155.34896812 887.06307682 -1156.26727218 887.06267708 -1157.21340363 887.06226522 C-1203.14226944 887.04226269 -1249.07113491 887.0215664 -1295 887 C-1295 886.01 -1295 885.02 -1295 884 C-1294.1831447 884.00032998 -1294.1831447 884.00032998 -1293.34978726 884.00066663 C-1247.10046104 884.01931187 -1200.85113415 884.03591113 -1154.60180664 884.05102539 C-1153.22816593 884.05147456 -1153.22816593 884.05147456 -1151.82677491 884.05193281 C-1053.71739644 884.08395856 -955.60802589 884.10283439 -857.49864197 884.09507751 C-855.31978776 884.09490859 -853.14093356 884.09473968 -850.96207935 884.09457078 C-805.22906057 884.09098546 -759.49604217 884.0855487 -713.76302388 884.07797269 C-690.79039304 884.07416908 -667.81776216 884.07072131 -644.84513122 884.06760996 C-641.3797599 884.06713856 -637.91438858 884.06665699 -634.44901726 884.066175 C-581.07647951 884.05884113 -527.70395522 884.05914658 -474.3314209 884.08154297 C-473.1835456 884.0820245 -472.03567029 884.08250603 -470.85301089 884.08300215 C-452.34543263 884.09081235 -433.83785466 884.09926269 -415.33027672 884.10779798 C-362.03372316 884.13236741 -308.73718685 884.1522166 -255.4406271 884.1407156 C-254.34501449 884.14048148 -253.24940189 884.14024736 -252.1205889 884.14000615 C-228.0713252 884.13478208 -204.02206291 884.12712271 -179.97280073 884.11715633 C-170.29671647 884.11318933 -160.62063209 884.10957303 -150.94454765 884.10607719 C-149.88553134 884.10568613 -148.82651502 884.10529506 -147.7354073 884.10489214 C-113.59334388 884.09245891 -79.45136701 884.10859227 -45.30931766 884.1396573 C-10.92681142 884.17081068 23.45557442 884.17405398 57.83807984 884.13831759 C62.58585994 884.13338988 67.3336403 884.12878336 72.0814209 884.12437057 C73.01214777 884.12349391 73.94287464 884.12261724 74.90180535 884.121714 C89.65882173 884.10864719 104.4156422 884.12589366 119.17262775 884.15569117 C133.67193965 884.18434863 148.17095025 884.18113135 162.67024536 884.14366677 C171.17839724 884.12265293 179.68567755 884.1264391 188.19376627 884.16643654 C194.49996655 884.19335389 200.80519588 884.17366663 207.11131945 884.13539918 C209.65428189 884.12728537 212.19734759 884.13443106 214.74021138 884.15825546 C227.66720488 884.98571369 227.66720488 884.98571369 239.46137608 880.92150544 C241.64924291 878.72085841 243.28915904 876.56954173 245 874 C245.66 874 246.32 874 247 874 C247 873.34 247 872.68 247 872 C248.44018555 870.56567383 248.44018555 870.56567383 250.44921875 868.89453125 C255.85199928 864.30115605 260.95315802 859.41407804 266.08398438 854.52148438 C267.16583008 853.49571289 267.16583008 853.49571289 268.26953125 852.44921875 C269.23789917 851.52629028 269.23789917 851.52629028 270.22583008 850.5847168 C272 849 272 849 275 847 C275.30650655 844.14157313 275.41550797 841.49743457 275.39872742 838.63522339 C275.40537424 837.75963433 275.41202107 836.88404528 275.41886932 835.98192322 C275.43760952 833.03063862 275.43488666 830.07975551 275.43237305 827.12841797 C275.44138348 825.01976951 275.45170892 822.91112632 275.46325684 820.80249023 C275.49093732 815.06310863 275.50012631 809.32382609 275.50611091 803.58438635 C275.51546592 797.59187199 275.54166686 791.59943248 275.56611633 785.60696411 C275.60986433 774.25268637 275.63836025 762.89842308 275.66143972 751.54408658 C275.68844699 738.62042215 275.73236118 725.69683272 275.77772844 712.77322173 C275.87069356 686.18218842 275.94231986 659.59113159 276 633 C275.42641613 632.7186733 274.85283225 632.4373466 274.26186705 632.14749485 C273.51545092 631.76882155 272.7690348 631.39014825 272 631 C270.95713231 630.49759793 270.95713231 630.49759793 269.89319658 629.98504633 C266.71496356 627.93297401 264.47189309 625.92929952 263.54338586 622.13316734 C262.75711655 616.04091973 262.96326741 609.88745306 263.03796387 603.75868225 C263.03447535 601.64485948 263.02747085 599.53104007 263.01725054 597.41723913 C262.99934482 591.60640786 263.03138401 585.7967541 263.07147503 579.9860729 C263.10598846 573.72097062 263.09433418 567.45593597 263.08825684 561.19076538 C263.08405981 550.33523738 263.1089032 539.48018314 263.15415955 528.62477303 C263.20150065 517.24011476 263.23228802 505.85560979 263.24098206 494.47085381 C263.24153197 493.76291178 263.24208189 493.05496975 263.24264847 492.32557494 C263.24535515 488.73027483 263.24776621 485.1349746 263.25006348 481.53967422 C263.26686549 456.07606846 263.32076057 430.61266291 263.39648438 405.14916992 C263.46996271 380.41220158 263.52663014 355.67528803 263.56054688 330.93823242 C263.56159908 330.17569053 263.56265129 329.41314865 263.56373539 328.62749943 C263.57428357 320.96971981 263.58449008 313.31193977 263.59444626 305.65415936 C263.61473581 290.05446574 263.63730583 274.4547757 263.66125488 258.85508728 C263.6623532 258.13784347 263.66345152 257.42059966 263.66458312 256.68162119 C263.73818483 208.78766238 263.86511243 160.8938213 264 113 C263.08782715 112.57787231 263.08782715 112.57787231 262.15722656 112.1472168 C259.12669045 110.53557248 257.12924035 108.27671322 254.75 105.8125 C251.00986545 101.94805462 247.16467115 98.3573924 243.09667969 94.84057617 C238.83571569 91.10007692 234.75887209 87.15805509 230.6484375 83.25390625 C229.97554687 82.61839844 229.30265625 81.98289062 228.609375 81.328125 C228.01092773 80.7599707 227.41248047 80.19181641 226.79589844 79.60644531 C224.9879878 77.92929205 224.9879878 77.92929205 222.77441406 76.41699219 C222.18885742 75.94938477 221.60330078 75.48177734 221 75 C221 74.34 221 73.68 221 73 C218.21066349 72.07022116 216.58280286 71.88073524 213.7068634 71.89561462 C212.83081451 71.89738708 211.95476562 71.89915955 211.0521698 71.90098572 C210.09369644 71.90779861 209.13522308 71.91461151 208.14770508 71.92163086 C206.05060375 71.92774723 203.95350186 71.93367395 201.85639954 71.93943787 C200.18595298 71.9464462 200.18595298 71.9464462 198.48176003 71.95359612 C192.58873605 71.9727406 186.69576762 71.95756556 180.80273438 71.94726562 C173.30145691 71.93501618 165.8007495 71.93333042 158.29956055 71.97583008 C152.23976767 72.00925895 146.18110288 72.00377199 140.1213131 71.97226143 C137.81410034 71.96733901 135.50681119 71.97661041 133.19971657 72.00047112 C129.96496431 72.03195535 126.73395963 72.01365904 123.49926758 71.98413086 C122.55091537 72.00511337 121.60256317 72.02609589 120.62547302 72.04771423 C115.19211917 71.9380501 112.48391602 71.04667547 108.59062195 67.15602112 C107.39031101 65.77365759 106.19333805 64.3883874 105 63 C103.70378017 61.81733263 102.3897761 60.65354215 101.05078125 59.51953125 C95.83844995 55.03088711 90.89305087 50.2674277 85.91601562 45.52148438 C84.83416992 44.49571289 84.83416992 44.49571289 83.73046875 43.44921875 C83.08489014 42.83393311 82.43931152 42.21864746 81.77416992 41.5847168 C79.88171658 39.81961117 79.88171658 39.81961117 77 38 C77 37.34 77 36.68 77 36 C76.42765625 35.75636719 75.8553125 35.51273438 75.265625 35.26171875 C72.59566462 33.77482702 70.86170993 32.01916092 68.75 29.8125 C65.18194522 26.15598106 61.51179152 22.72825821 57.62890625 19.41015625 C56.37392427 18.32370902 55.17374345 17.17374345 54 16 C51.35657069 15.8883856 48.80672246 15.89276411 46.16796875 15.97265625 C44.54754727 15.98648688 42.92709934 15.99745638 41.30664062 16.00585938 C38.76193559 16.02606897 36.22234259 16.06132332 33.67895508 16.1472168 C24.11251302 16.4455505 16.94764303 16.27995111 9.55078125 9.68359375 C7.61513797 7.8482866 5.81747783 5.95927057 4 4 C2.6690225 2.66431499 1.33668514 1.32997308 0 0 Z " fill="#4169D0" transform="translate(1295,0)"/>


</svg>
