<svg width="111" height="110" viewBox="0 0 111 110" fill="none" xmlns="http://www.w3.org/2000/svg">
<rect x="1.25" y="109.75" width="109.5" height="109.5" transform="rotate(-90 1.25 109.75)" fill="white" stroke="black" stroke-width="0.5"/>
<rect x="1.96436" y="54" width="54" height="108.036" transform="rotate(-90 1.96436 54)" fill="#305CCC"/>
<path d="M55.9822 109C85.8154 109 110 83.9279 110 53L1.96435 53C1.96435 83.9279 26.149 109 55.9822 109Z" fill="#305CCC"/>
<mask id="mask0_154_278" style="mask-type:alpha" maskUnits="userSpaceOnUse" x="0" y="0" width="109" height="54">
<rect y="54" width="54" height="108.036" transform="rotate(-90 0 54)" fill="#305CCC"/>
</mask>
<g mask="url(#mask0_154_278)">
<path d="M39.9951 14.2775C53.4606 27.9876 54.0121 50.0726 54.0137 53.5365C54.0153 50.0726 54.5668 27.9876 68.0323 14.2775C81.4165 0.649498 102.927 0.0125001 106.527 0.00400082C102.927 -0.00499789 81.4165 -0.64199 68.0323 -14.2695C54.5668 -27.9798 54.0153 -50.0647 54.0137 -53.5285C54.0121 -50.0647 53.4606 -27.9798 39.9951 -14.2695C26.611 -0.641988 5.1006 -0.00499362 1.5007 0.00400541C5.1006 0.0125044 26.611 0.649501 39.9951 14.2775Z" fill="white"/>
</g>
</svg>
