<svg width="110" height="111" viewBox="0 0 110 111" fill="none" xmlns="http://www.w3.org/2000/svg">
<rect x="109.75" y="109.75" width="109.5" height="109.5" transform="rotate(180 109.75 109.75)" fill="white" stroke="black" stroke-width="0.5"/>
<rect x="54" y="109.036" width="54" height="108.036" transform="rotate(180 54 109.036)" fill="#305CCC"/>
<path d="M109 55.0178C109 25.1846 83.9279 0.999934 53 0.999936L53 109.036C83.9279 109.036 109 84.851 109 55.0178Z" fill="#305CCC"/>
<mask id="mask0_154_300" style="mask-type:alpha" maskUnits="userSpaceOnUse" x="0" y="2" width="54" height="109">
<rect x="54" y="111" width="54" height="108.036" transform="rotate(180 54 111)" fill="#305CCC"/>
</mask>
<g mask="url(#mask0_154_300)">
<path d="M14.2775 71.0047C27.9876 57.5391 50.0726 56.9876 53.5365 56.986C50.0726 56.9844 27.9876 56.433 14.2775 42.9674C0.649495 29.5833 0.0124957 8.07287 0.00399621 4.47282C-0.00500235 8.07287 -0.641994 29.5833 -14.2695 42.9674C-27.9798 56.433 -50.0647 56.9844 -53.5285 56.986C-50.0647 56.9876 -27.9798 57.5391 -14.2695 71.0047C-0.641989 84.3888 -0.0049938 105.899 0.00400539 109.499C0.0125042 105.899 0.6495 84.3888 14.2775 71.0047Z" fill="white"/>
</g>
</svg>
