<svg width="110" height="111" viewBox="0 0 110 111" fill="none" xmlns="http://www.w3.org/2000/svg">
<rect x="0.25" y="1.25" width="109.5" height="109.5" fill="#305CCC" stroke="black" stroke-width="0.5"/>
<rect x="56" y="1.96436" width="54" height="108.036" fill="white"/>
<path d="M1 55.9822C1 85.8154 26.0721 110 57 110V1.96436C26.0721 1.96436 1 26.149 1 55.9822Z" fill="white"/>
<mask id="mask0_149_192" style="mask-type:alpha" maskUnits="userSpaceOnUse" x="56" y="0" width="54" height="109">
<rect x="56" width="54" height="108.036" fill="white"/>
</mask>
<g mask="url(#mask0_149_192)">
<path d="M95.7225 39.9953C82.0124 53.4609 59.9274 54.0124 56.4635 54.014C59.9274 54.0156 82.0124 54.5671 95.7225 68.0326C109.35 81.4167 109.987 102.927 109.996 106.527C110.005 102.927 110.642 81.4167 124.269 68.0326C137.98 54.5671 160.065 54.0156 163.529 54.014C160.065 54.0124 137.98 53.4609 124.269 39.9953C110.642 26.6112 110.005 5.10085 109.996 1.50095C109.987 5.10085 109.35 26.6112 95.7225 39.9953Z" fill="#305CCC"/>
</g>
</svg>
